<svg width="136" height="22" viewBox="0 0 136 22" fill="none" xmlns="http://www.w3.org/2000/svg">
<path d="M0.750061 0.80606H6.14473L10.3278 6.92194L14.5108 0.80606H19.992L13.2703 10.4703L20.5401 21H15.0301L10.3278 14.3072L5.68315 21H0.288485L7.50061 10.6722L0.750061 0.80606ZM21.7226 21V0.80606H26.3672V13.961L36.0026 0.80606H40.3875V21H35.7718V7.87394L26.1364 21H21.7226ZM44.4568 21V0.80606H48.3225L56.9194 15.0572H54.8711L63.3237 0.80606H67.1894L67.2183 21H62.8333L62.8045 7.52776H63.6411L56.8617 18.8652H54.7846L47.861 7.52776H48.8418V21H44.4568Z" fill="black"/>
<path d="M71.2761 21V0.80606H87.5755V4.52751H75.9207V8.6817H81.5173C83.9598 8.6817 85.8157 9.19135 87.0851 10.2107C88.3736 11.23 89.0179 12.7109 89.0179 14.6533C89.0179 16.6535 88.3063 18.2113 86.8831 19.3268C85.4599 20.4423 83.4502 21 80.8538 21H71.2761ZM75.9207 17.5382H80.5942C81.7866 17.5382 82.7001 17.3074 83.3348 16.8458C83.9694 16.365 84.2868 15.6726 84.2868 14.7687C84.2868 12.9994 83.0559 12.1147 80.5942 12.1147H75.9207V17.5382ZM91.6157 21V0.80606H96.2603V13.961L105.896 0.80606H110.281V21H105.665V7.87394L96.0295 21H91.6157ZM124.014 21.3462C122.418 21.3462 120.937 21.0865 119.572 20.5673C118.225 20.048 117.052 19.3172 116.052 18.3748C115.071 17.4324 114.302 16.3265 113.744 15.0572C113.206 13.7879 112.936 12.4032 112.936 10.903C112.936 9.40291 113.206 8.01818 113.744 6.74885C114.302 5.47952 115.081 4.37366 116.081 3.43127C117.081 2.48889 118.254 1.75806 119.6 1.23879C120.947 0.719515 122.408 0.459879 123.985 0.459879C125.582 0.459879 127.043 0.719515 128.37 1.23879C129.717 1.75806 130.88 2.48889 131.861 3.43127C132.861 4.37366 133.64 5.47952 134.198 6.74885C134.756 7.99895 135.034 9.38368 135.034 10.903C135.034 12.4032 134.756 13.7975 134.198 15.0861C133.64 16.3554 132.861 17.4613 131.861 18.4036C130.88 19.3268 129.717 20.048 128.37 20.5673C127.043 21.0865 125.591 21.3462 124.014 21.3462ZM123.985 17.3651C124.889 17.3651 125.716 17.2112 126.466 16.9035C127.236 16.5958 127.909 16.1535 128.486 15.5765C129.063 14.9995 129.505 14.3168 129.813 13.5282C130.14 12.7397 130.303 11.8646 130.303 10.903C130.303 9.94141 130.14 9.06634 129.813 8.27782C129.505 7.48929 129.063 6.80655 128.486 6.22958C127.928 5.65261 127.265 5.21026 126.495 4.90255C125.726 4.59483 124.889 4.44097 123.985 4.44097C123.081 4.44097 122.245 4.59483 121.476 4.90255C120.726 5.21026 120.062 5.65261 119.485 6.22958C118.908 6.80655 118.456 7.48929 118.129 8.27782C117.821 9.06634 117.668 9.94141 117.668 10.903C117.668 11.8454 117.821 12.7205 118.129 13.5282C118.456 14.3168 118.898 14.9995 119.456 15.5765C120.033 16.1535 120.706 16.5958 121.476 16.9035C122.245 17.2112 123.081 17.3651 123.985 17.3651Z" fill="#68A74A"/>
</svg>
