<svg width="22" height="18" viewBox="0 0 22 18" fill="none" xmlns="http://www.w3.org/2000/svg">
<path fill-rule="evenodd" clip-rule="evenodd" d="M1.51239 7.74888C7.41795 5.20867 11.3559 3.534 13.3263 2.72489C18.9521 0.414697 20.1211 0.0133926 20.883 0.000141289C21.0506 -0.00277319 21.4253 0.0382296 21.668 0.232668C21.873 0.396848 21.9294 0.618632 21.9563 0.774293C21.9833 0.929954 22.0169 1.28455 21.9902 1.56163C21.6854 4.7241 20.3662 12.3986 19.6951 15.9406C19.4111 17.4394 18.852 17.9419 18.3107 17.9911C17.1343 18.098 16.2409 17.2235 15.1015 16.4861C13.3186 15.3323 12.3113 14.614 10.5807 13.488C8.58058 12.1868 9.87715 11.4716 11.017 10.3027C11.3153 9.99686 16.4986 5.34226 16.5989 4.92001C16.6115 4.86721 16.6231 4.67036 16.5046 4.56642C16.3862 4.46248 16.2114 4.49802 16.0852 4.52629C15.9064 4.56636 13.0581 6.42501 7.54035 10.1022C6.73187 10.6503 5.99958 10.9174 5.34347 10.9034C4.62016 10.888 3.2288 10.4996 2.19447 10.1677C0.925826 9.76056 -0.0824703 9.5453 0.00532971 8.85385C0.0510613 8.4937 0.553413 8.12538 1.51239 7.74888Z" fill="white"/>
</svg>
